<svg viewBox="0 0 24 24" fill="none" xmlns="http://www.w3.org/2000/svg">
<path d="M4.37781 8.32054C4.09509 8.66675 3.64246 8.93962 3.18982 8.90057C3.13367 8.43293 3.35542 7.93528 3.61462 7.6286C3.89734 7.27287 4.39221 7.01905 4.79301 7C4.84005 7.48717 4.65621 7.96481 4.37781 8.32054ZM4.74021 9.14248C4.08021 9.14248 3.60838 9.49964 3.30022 9.49964C2.98727 9.49964 2.52023 9.14677 1.98024 9.14677C1.32024 9.14677 0.674172 9.55774 0.333375 10.1568C-0.366937 11.3545 0.151457 13.1279 0.82825 14.1027C1.15993 14.5856 1.56024 15.0951 2.10024 15.0951C2.59511 15.0766 2.76263 14.7975 3.36022 14.7975C3.96214 14.7975 4.14021 15.0951 4.68021 15.0951C5.2202 15.0951 5.54756 14.6042 5.87876 14.1213C6.25699 13.5736 6.41107 13.0398 6.42019 13.0117C6.41107 13.0027 5.37476 12.6079 5.36516 11.4193C5.35604 10.4259 6.18211 9.95204 6.21955 9.92442C5.75252 9.23773 4.98021 9.14248 4.80021 9.14248H4.74021ZM11.3776 7.95195H8.64017V15.0951H9.78015V12.7141H11.3401C12.772 12.7141 13.8001 11.7259 13.8001 10.333C13.8001 8.94009 12.7907 7.95195 11.3776 7.95195ZM11.1001 11.7617H9.78015V8.90438H11.1001C12.0827 8.90438 12.6601 9.43059 12.6601 10.333C12.6601 11.2354 12.0875 11.7617 11.1001 11.7617ZM16.4156 9.8568C15.2209 9.8568 14.3377 10.5216 14.3051 11.4354H15.3183C15.4019 11.0011 15.8156 10.7164 16.383 10.7164C17.0708 10.7164 17.4596 11.0283 17.4596 11.6031L17.4601 11.9998L16.0532 12.0736C14.7471 12.1502 14.0401 12.6707 14.0401 13.5756C14.0401 14.4894 14.7702 15.0956 15.8161 15.0956C16.5226 15.0956 17.1783 14.7475 17.4754 14.1956H17.4985V15.0413H18.5396V11.5312C18.5401 10.5125 17.7034 9.8568 16.4156 9.8568ZM17.4567 13.1274C17.4567 13.7879 16.8802 14.2584 16.118 14.2584C15.5185 14.2584 15.1369 13.978 15.1369 13.5484C15.1369 13.1051 15.5041 12.8474 16.2063 12.8065L17.4601 12.7141L17.4567 13.1274ZM22.8456 9.8568L21.5083 14.0875H21.4848L20.1471 9.8568H18.9601L20.8839 15.0709L20.7807 15.388C20.6069 15.9257 20.3256 16.1323 19.8236 16.1323C19.7376 16.1323 19.5749 16.1238 19.5 16.1147V16.9743C19.5759 16.991 19.8399 17 19.922 17C21.0293 17 21.5501 16.5866 22.0056 15.3323L24 9.8568H22.8456Z" fill="black"/>
</svg>
