<svg viewBox="0 0 24 24" fill="none" xmlns="http://www.w3.org/2000/svg">
<path d="M22.4001 5.6V6.4H1.6001V5.6C1.6001 4.716 2.3161 4 3.2001 4H20.8001C21.6841 4 22.4001 4.716 22.4001 5.6Z" fill="currentColor"/>
<path d="M15.694 13.5584C15.791 13.4692 15.895 13.4232 16.0001 13.4232C16.1052 13.4232 16.2092 13.4692 16.3062 13.5584C16.4033 13.6477 16.4915 13.7786 16.5658 13.9436C16.6401 14.1086 16.699 14.3045 16.7392 14.52C16.7794 14.7356 16.8001 14.9667 16.8001 15.2C16.8001 15.4333 16.7794 15.6644 16.7392 15.88C16.699 16.0955 16.6401 16.2914 16.5658 16.4564C16.4915 16.6214 16.4033 16.7523 16.3062 16.8415C16.2092 16.9308 16.1052 16.9768 16.0001 16.9768C15.895 16.9768 15.791 16.9308 15.694 16.8415C15.5969 16.7523 15.5087 16.6214 15.4344 16.4564C15.3601 16.2914 15.3012 16.0955 15.261 15.88C15.2208 15.6644 15.2001 15.4333 15.2001 15.2C15.2001 14.9667 15.2208 14.7356 15.261 14.52C15.3012 14.3045 15.3601 14.1086 15.4344 13.9436C15.5087 13.7786 15.5969 13.6477 15.694 13.5584Z" fill="currentColor"/>
<path fill-rule="evenodd" clip-rule="evenodd" d="M1.6001 18.4V8.8H22.4001V18.4C22.4001 19.284 21.6841 20 20.8001 20H3.2001C2.3161 20 1.6001 19.284 1.6001 18.4ZM16.0001 16.9768C16.4257 17.36 16.9825 17.6 17.6001 17.6C18.9257 17.6 20.0001 16.5256 20.0001 15.2C20.0001 13.8744 18.9257 12.8 17.6001 12.8C16.9825 12.8 16.4257 13.04 16.0001 13.4232C15.5745 13.04 15.0177 12.8 14.4001 12.8C13.0745 12.8 12.0001 13.8744 12.0001 15.2C12.0001 16.5256 13.0745 17.6 14.4001 17.6C15.0177 17.6 15.5745 17.36 16.0001 16.9768Z" fill="currentColor"/>
</svg>
