<svg  viewBox="0 0 24 24" fill="none" xmlns="http://www.w3.org/2000/svg">
<path d="M16.003 2C14.4645 2 12.9263 2.58329 11.758 3.75068L3.7526 11.7538C1.41565 14.0889 1.41595 17.9055 3.7526 20.2415V20.2435C4.92119 21.4105 6.46243 22 7.99763 22C9.53282 22 11.0748 21.409 12.2427 20.2415L20.248 12.2403V12.2384C22.5837 9.90316 22.5843 6.08629 20.248 3.75068C19.0797 2.58329 17.5414 2 16.003 2ZM16.003 3.9871C17.0252 3.9871 18.047 4.37993 18.833 5.1653C20.4049 6.73682 20.4047 9.25334 18.833 10.8238L15.5378 14.118L9.87779 8.45955L13.173 5.1653C13.9589 4.37993 14.9807 3.9871 16.003 3.9871ZM8.46278 9.87417L14.1228 15.5326L10.8276 18.8269C10.0421 19.6122 9.02415 19.9992 7.99763 19.9992C6.97163 19.9992 5.95416 19.6118 5.16761 18.8269C3.59566 17.2554 3.59595 14.7388 5.16761 13.1684L8.46278 9.87417Z" fill="currentColor"/>
</svg>
