<svg  viewBox="0 0 24 24" fill="none" xmlns="http://www.w3.org/2000/svg">
<path d="M0 4C0 3.44772 0.447716 3 1 3H23C23.5523 3 24 3.44772 24 4C24 4.55228 23.5523 5 23 5H1C0.447715 5 0 4.55228 0 4Z" fill="currentColor"/>
<path d="M0 12C0 11.4477 0.447716 11 1 11H23C23.5523 11 24 11.4477 24 12C24 12.5523 23.5523 13 23 13H1C0.447715 13 0 12.5523 0 12Z" fill="currentColor"/>
<path d="M24 20C24 19.4477 23.5523 19 23 19H1C0.447715 19 0 19.4477 0 20C0 20.5523 0.447716 21 1 21H23C23.5523 21 24 20.5523 24 20Z" fill="currentColor"/>
</svg>
