<svg  viewBox="0 0 24 24" fill="none" xmlns="http://www.w3.org/2000/svg">
<path d="M16.9789 14.9474C16.6258 14.7404 16.1919 14.7448 15.8406 14.9535L14.0615 16.0134C13.6633 16.2508 13.1659 16.223 12.8007 15.9378C12.1694 15.4448 11.1529 14.6152 10.2686 13.7309C9.38423 12.8465 8.55468 11.83 8.06165 11.1987C7.77643 10.8335 7.74861 10.3362 7.98599 9.9379L9.04598 8.1588C9.25554 7.8075 9.25728 7.37011 9.05032 7.01707L6.43906 2.55715C6.18602 2.12585 5.68342 1.91368 5.19734 2.03281C4.72518 2.14846 4.11215 2.42846 3.46955 3.07105C1.45741 5.08319 0.388729 8.47705 7.95556 16.0439C15.5224 23.6107 18.9171 22.5429 20.9293 20.5308C21.5736 19.8864 21.8527 19.2725 21.9684 18.7995C22.0858 18.3143 21.8771 17.8152 21.4466 17.563C20.3719 16.9343 18.0537 15.5769 16.9789 14.9474Z" fill="currentColor"/>
</svg>
