<svg viewBox="0 0 24 24" fill="none" xmlns="http://www.w3.org/2000/svg">
<g clip-path="url(#clip0_1321_2655)">
<path d="M6.55252 14.6953C6.9374 14.5949 7.23263 14.2937 7.33065 13.9088L7.82489 11.9575C7.93546 11.5207 8.29643 11.1979 8.74346 11.143C9.51621 11.0479 10.785 10.9194 12.0006 10.9194C13.2162 10.9194 14.485 11.0479 15.2577 11.143C15.7048 11.1979 16.0657 11.5207 16.1763 11.9575L16.6706 13.9088C16.768 14.2943 17.0674 14.5961 17.4523 14.6965L22.3123 15.9671C22.7826 16.0896 23.2739 15.89 23.5261 15.474C23.7711 15.07 24 14.4563 24 13.573C24 10.8071 22.4019 7.73999 12.0006 7.73999C1.59928 7.73999 0 10.8071 0 13.573C0 14.4587 0.230091 15.0724 0.475721 15.477C0.728523 15.8912 1.215 16.0908 1.68415 15.9683C2.85492 15.6617 5.38115 15.0013 6.55252 14.6953Z" fill="currentColor"/>
</g>
<defs>
<clipPath id="clip0_1321_2655">
<rect width="100%" height="100%" fill="white"/>
</clipPath>
</defs>
</svg>
