<svg  viewBox="0 0 24 24" fill="none" xmlns="http://www.w3.org/2000/svg">
<path d="M3.75 12H7.25V14H3.75V12Z" fill="currentColor"/>
<path d="M11.75 12H8.25V14H11.75V12Z" fill="currentColor"/>
<path d="M12.75 12H16.25V14H12.75V12Z" fill="currentColor"/>
<path fill-rule="evenodd" clip-rule="evenodd" d="M3 2C1.34315 2 0 3.34315 0 5V15C0 16.6569 1.34315 18 3 18H4V19C4 20.6569 5.34315 22 7 22H20C22.2091 22 24 20.2091 24 18V9C24 7.34315 22.6569 6 21 6H20V5C20 3.34315 18.6569 2 17 2H3ZM17 4H3C2.44772 4 2 4.44772 2 5V6H18V5C18 4.44771 17.5523 4 17 4ZM2 15V8.5H18V15C18 15.5523 17.5523 16 17 16H3C2.44772 16 2 15.5523 2 15ZM20 8V10H22V9C22 8.44772 21.5523 8 21 8H20ZM22 12.5H20V15C20 16.6569 18.6569 18 17 18H6V19C6 19.5523 6.44772 20 7 20H20C21.1046 20 22 19.1046 22 18V12.5Z" fill="currentColor"/>
</svg>
