<svg  viewBox="0 0 24 24" fill="none" xmlns="http://www.w3.org/2000/svg">
<path d="M5 3C4.44775 3 4 3.44772 4 4V5H20V4C20 3.44772 19.5522 3 19 3H5Z" fill="currentColor"/>
<path d="M2 7C2 6.44772 2.44775 6 3 6H21C21.5522 6 22 6.44772 22 7V8H2V7Z" fill="currentColor"/>
<path fill-rule="evenodd" clip-rule="evenodd" d="M15.5 15.5C15.5 17.433 13.933 19 12 19C10.067 19 8.5 17.433 8.5 15.5C8.5 13.567 10.067 12 12 12C13.933 12 15.5 13.567 15.5 15.5ZM13.5 15.5C13.5 16.3284 12.8284 17 12 17C11.1716 17 10.5 16.3284 10.5 15.5C10.5 14.6716 11.1716 14 12 14C12.8284 14 13.5 14.6716 13.5 15.5Z" fill="currentColor"/>
<path d="M7.5 15.5C7.5 16.0523 7.05225 16.5 6.5 16.5C5.94775 16.5 5.5 16.0523 5.5 15.5C5.5 14.9477 5.94775 14.5 6.5 14.5C7.05225 14.5 7.5 14.9477 7.5 15.5Z" fill="currentColor"/>
<path d="M17.5 16.5C18.0522 16.5 18.5 16.0523 18.5 15.5C18.5 14.9477 18.0522 14.5 17.5 14.5C16.9478 14.5 16.5 14.9477 16.5 15.5C16.5 16.0523 16.9478 16.5 17.5 16.5Z" fill="currentColor"/>
<path fill-rule="evenodd" clip-rule="evenodd" d="M1 10C1 9.44772 1.44775 9 2 9H22C22.5522 9 23 9.44772 23 10V21C23 21.5523 22.5522 22 22 22H2C1.44775 22 1 21.5523 1 21V10ZM3 18.0854V12.9146C3.05591 12.9344 3.11328 12.9509 3.172 12.964C3.21936 12.9746 3.26758 12.9829 3.31641 12.9889C3.37659 12.9962 3.43787 13 3.5 13C4.32837 13 5 12.3284 5 11.5C5 11.3247 4.96997 11.1564 4.91467 11H19.0853C19.03 11.1564 19 11.3247 19 11.5C19 12.3284 19.6716 13 20.5 13C20.6753 13 20.8436 12.9699 21 12.9146V18.0854C20.8436 18.0301 20.6753 18 20.5 18C19.6716 18 19 18.6716 19 19.5C19 19.6753 19.03 19.8436 19.0853 20H4.91467C4.94385 19.9174 4.96606 19.8316 4.98047 19.7432C4.99329 19.664 5 19.5828 5 19.5C5 18.6716 4.32837 18 3.5 18C3.42725 18 3.35571 18.0052 3.28564 18.0152C3.18701 18.0293 3.09143 18.053 3 18.0854Z" fill="currentColor"/>
</svg>
