<svg  viewBox="0 0 24 24" fill="none" xmlns="http://www.w3.org/2000/svg">
<path fill-rule="evenodd" clip-rule="evenodd" d="M12 21C16.9706 21 21 16.9706 21 12C21 7.02944 16.9706 3 12 3C7.02944 3 3 7.02944 3 12C3 16.9706 7.02944 21 12 21ZM17.3769 9.87697C17.7674 9.48644 17.7674 8.85328 17.3769 8.46275C16.9864 8.07223 16.3532 8.07223 15.9627 8.46275L10.3058 14.1196L8.0431 11.8569C7.65257 11.4663 7.01941 11.4663 6.62888 11.8569C6.23836 12.2474 6.23836 12.8806 6.62888 13.2711L9.59873 16.2409C9.98926 16.6315 10.6224 16.6315 11.0129 16.2409L17.3769 9.87697Z" fill="currentColor"/>
</svg>
