<svg  viewBox="0 0 24 24" fill="none" xmlns="http://www.w3.org/2000/svg">
<path d="M8.11231 22C6.80683 22 5.57964 21.494 4.65778 20.5747C3.73494 19.6559 3.22704 18.4334 3.22704 17.1333C3.22704 15.8338 3.73494 14.6113 4.65778 13.6925L11.3007 7.07443C12.5327 5.84801 14.6779 5.84899 15.906 7.07443C16.5216 7.68715 16.8602 8.50215 16.8602 9.36834C16.8602 10.235 16.5216 11.05 15.906 11.6627L10.0607 17.4863C9.66929 17.8762 9.03515 17.8762 8.6437 17.4863C8.25225 17.0963 8.25225 16.4646 8.6437 16.0746L14.489 10.2511C14.9773 9.76464 14.9773 8.97254 14.489 8.48607C14.0153 8.0152 13.1913 8.01471 12.7177 8.48656L6.07482 15.1041C5.53071 15.6462 5.23125 16.3671 5.23125 17.1333C5.23125 17.9001 5.53071 18.621 6.07482 19.1631C7.16207 20.2462 9.05961 20.2481 10.1488 19.1631L17.6783 11.6627C19.4359 9.91136 19.4359 7.06078 17.6783 5.30939C15.9188 3.55848 13.0583 3.55848 11.3007 5.30939L4.71063 11.8743C4.31918 12.2643 3.68503 12.2643 3.29359 11.8743C2.90214 11.4843 2.90214 10.8526 3.29359 10.4627L9.88361 3.89775C12.4222 1.36693 16.5549 1.36791 19.0954 3.89775C21.6349 6.42759 21.6349 10.5445 19.0954 13.0744L11.5659 20.5747C10.644 21.494 9.41681 22 8.11231 22Z" fill="currentColor"/>
</svg>
