<svg  viewBox="0 0 24 24" fill="none" xmlns="http://www.w3.org/2000/svg">
<path fill-rule="evenodd" clip-rule="evenodd" d="M12 21C16.9706 21 21 16.9706 21 12C21 7.02944 16.9706 3 12 3C7.02944 3 3 7.02944 3 12C3 16.9706 7.02944 21 12 21ZM7.7574 16.2426C7.36688 15.8521 7.36688 15.2189 7.7574 14.8284L10.5858 12L7.75737 9.17158C7.36685 8.78105 7.36685 8.14789 7.75737 7.75736C8.14789 7.36684 8.78106 7.36684 9.17158 7.75736L12 10.5858L14.8285 7.75734C15.219 7.36682 15.8522 7.36682 16.2427 7.75734C16.6332 8.14786 16.6332 8.78103 16.2427 9.17155L13.4142 12L16.2427 14.8284C16.6332 15.219 16.6332 15.8521 16.2427 16.2426C15.8521 16.6332 15.219 16.6332 14.8284 16.2426L12 13.4142L9.17161 16.2426C8.78109 16.6331 8.14792 16.6331 7.7574 16.2426Z" fill="currentColor"/>
</svg>
