<svg  viewBox="0 0 24 24" fill="none" xmlns="http://www.w3.org/2000/svg">
<path fill-rule="evenodd" clip-rule="evenodd" d="M20.1091 1.73223C19.1327 0.755924 17.5498 0.755921 16.5735 1.73223L3.03482 15.2709C2.66268 15.6431 2.39498 16.1066 2.25861 16.6149L1.05283 21.1091C0.753506 22.2248 1.77462 23.2459 2.89029 22.9466L7.38454 21.7408C7.89285 21.6044 8.35634 21.3367 8.72847 20.9646L22.2672 7.42589C23.2435 6.44958 23.2435 4.86667 22.2672 3.89036L20.1091 1.73223ZM17.9877 3.14645C18.183 2.95118 18.4996 2.95118 18.6948 3.14645L20.853 5.30457C21.0482 5.49983 21.0482 5.81642 20.853 6.01168L19.0544 7.81025L16.1892 4.94502L17.9877 3.14645ZM14.7749 6.35923L4.44903 16.6852C4.32498 16.8092 4.23575 16.9637 4.19029 17.1331L3.2091 20.7903L6.86628 19.8091C7.03572 19.7637 7.19021 19.6744 7.31426 19.5504L17.6402 9.22446L14.7749 6.35923Z" fill="currentColor"/>
</svg>
