<svg  viewBox="0 0 24 24" fill="none" xmlns="http://www.w3.org/2000/svg">
<path d="M10.1611 1C5.11243 1 1 5.11243 1 10.1611C1 15.2098 5.11243 19.3223 10.1611 19.3223C12.3566 19.3223 14.3729 18.5426 15.953 17.2485L21.4229 22.7183C21.5073 22.8063 21.6084 22.8764 21.7203 22.9248C21.8322 22.9732 21.9526 22.9987 22.0745 23C22.1964 23.0012 22.3173 22.9781 22.4301 22.932C22.5429 22.886 22.6455 22.8178 22.7316 22.7316C22.8178 22.6455 22.886 22.5429 22.932 22.4301C22.9781 22.3173 23.0012 22.1964 23 22.0745C22.9987 21.9526 22.9732 21.8322 22.9248 21.7203C22.8764 21.6084 22.8063 21.5073 22.7183 21.4229L17.2485 15.953C18.5426 14.3729 19.3223 12.3566 19.3223 10.1611C19.3223 5.11243 15.2098 1 10.1611 1ZM10.1611 2.83223C14.2196 2.83223 17.49 6.10264 17.49 10.1611C17.49 14.2196 14.2196 17.49 10.1611 17.49C6.10264 17.49 2.83223 14.2196 2.83223 10.1611C2.83223 6.10264 6.10264 2.83223 10.1611 2.83223ZM10.1468 5.56804C9.90416 5.57184 9.67293 5.67175 9.50386 5.84585C9.33479 6.01995 9.2417 6.25402 9.24502 6.49668V9.24502H6.49668C6.37528 9.2433 6.25476 9.26573 6.14211 9.311C6.02945 9.35627 5.92692 9.42348 5.84047 9.50871C5.75401 9.59395 5.68536 9.69553 5.63851 9.80753C5.59165 9.91953 5.56752 10.0397 5.56752 10.1611C5.56752 10.2825 5.59165 10.4027 5.63851 10.5147C5.68536 10.6267 5.75401 10.7283 5.84047 10.8136C5.92692 10.8988 6.02945 10.966 6.14211 11.0113C6.25476 11.0565 6.37528 11.079 6.49668 11.0772H9.24502V13.8256C9.2433 13.947 9.26573 14.0675 9.311 14.1802C9.35627 14.2928 9.42348 14.3953 9.50871 14.4818C9.59395 14.5683 9.69553 14.6369 9.80753 14.6838C9.91953 14.7306 10.0397 14.7547 10.1611 14.7547C10.2825 14.7547 10.4027 14.7306 10.5147 14.6838C10.6267 14.6369 10.7283 14.5683 10.8136 14.4818C10.8988 14.3953 10.966 14.2928 11.0113 14.1802C11.0565 14.0675 11.079 13.947 11.0772 13.8256V11.0772H13.8256C13.947 11.079 14.0675 11.0565 14.1802 11.0113C14.2928 10.966 14.3953 10.8988 14.4818 10.8136C14.5683 10.7283 14.6369 10.6267 14.6838 10.5147C14.7306 10.4027 14.7547 10.2825 14.7547 10.1611C14.7547 10.0397 14.7306 9.91953 14.6838 9.80753C14.6369 9.69553 14.5683 9.59395 14.4818 9.50871C14.3953 9.42348 14.2928 9.35627 14.1802 9.311C14.0675 9.26573 13.947 9.2433 13.8256 9.24502H11.0772V6.49668C11.0789 6.37411 11.056 6.25246 11.0098 6.13891C10.9636 6.02537 10.8951 5.92225 10.8084 5.83566C10.7216 5.74906 10.6183 5.68076 10.5047 5.6348C10.3911 5.58883 10.2694 5.56613 10.1468 5.56804Z" fill="currentColor"/>
</svg>
