<svg  viewBox="0 0 24 24" fill="none" xmlns="http://www.w3.org/2000/svg">
<path fill-rule="evenodd" clip-rule="evenodd" d="M22.7075 12.895L19.8785 15.724C19.6835 15.919 19.4275 16.017 19.1715 16.017C18.9155 16.017 18.6605 15.919 18.4645 15.724C18.0745 15.333 18.0745 14.7 18.4645 14.31L19.5865 13.188H12.9995C12.4475 13.188 11.9995 12.74 11.9995 12.188C11.9995 11.636 12.4475 11.188 12.9995 11.188H19.5865L18.4645 10.066C18.0745 9.676 18.0745 9.043 18.4645 8.652C18.8555 8.262 19.4885 8.262 19.8785 8.652L22.7075 11.481C23.0985 11.872 23.0985 12.504 22.7075 12.895ZM7.99951 19.349L4.99951 18.492V5.509L7.99951 4.652V19.349ZM14.4995 18.688H9.99951V5.688H14.4995V8.688H16.4995V5.688C16.4995 4.585 15.6035 3.688 14.4995 3.688H9.99951V2L4.45051 3.586C3.59151 3.832 2.99951 4.616 2.99951 5.509V18.492C2.99951 19.385 3.59151 20.17 4.45051 20.415L9.99951 22V20.688H14.4995C15.6035 20.688 16.4995 19.791 16.4995 18.688V15.688H14.4995V18.688Z" fill="currentColor"/>
</svg>
