<svg  viewBox="0 0 24 24" fill="none" xmlns="http://www.w3.org/2000/svg">
<path fill-rule="evenodd" clip-rule="evenodd" d="M4.54004 3C4.54004 1.34315 5.88318 0 7.54004 0C9.19689 0 10.54 1.34315 10.54 3V4C10.54 4.7715 10.2488 5.47499 9.7703 6.00652C10.719 6.06036 11.5793 6.44484 12.2377 7.04653C12.3331 7.01631 12.4346 7 12.54 7H13.3039C12.8289 6.46924 12.54 5.76835 12.54 5V4C12.54 2.34315 13.8832 1 15.54 1C17.1969 1 18.54 2.34315 18.54 4V5C18.54 5.76835 18.2512 6.46924 17.7761 7C19.5621 7 21.1326 8.18391 21.6232 9.90112L22.2703 12.1658C22.8173 14.0804 22.1758 16.1346 20.6426 17.3979L21.201 19.7709C21.2709 20.0683 21.2011 20.3814 21.0115 20.6209C20.8218 20.8603 20.533 21 20.2275 21H18.54V23C18.54 23.5523 18.0923 24 17.54 24C16.9878 24 16.54 23.5523 16.54 23V20C16.54 19.6947 16.6769 19.4213 16.8925 19.2379C17.067 19.0895 17.2931 19 17.54 19H18.9649L17.2541 11.729C17.1276 11.1914 17.4609 10.6531 17.9985 10.5266C18.5361 10.4001 19.0745 10.7333 19.201 11.2709L20.0798 15.0061C20.4632 14.3217 20.5712 13.499 20.3472 12.7152L19.7002 10.4506C19.4549 9.59195 18.6701 9 17.7771 9H13.414C13.4778 9.24786 13.5184 9.50501 13.5335 9.76902C14.5698 10.2416 15.29 11.2867 15.29 12.5V13C15.29 13.7347 15.0259 14.4078 14.5874 14.9293C15.4579 15.4545 16.04 16.4093 16.04 17.5V18.7929C16.04 19.5109 15.7548 20.1994 15.2471 20.7071C15.1145 20.8397 15.04 21.0196 15.04 21.2071V23C15.04 23.5523 14.5923 24 14.04 24C13.4878 24 13.04 23.5523 13.04 23V21.2071C13.04 20.4891 13.3253 19.8006 13.8329 19.2929C13.9655 19.1603 14.04 18.9804 14.04 18.7929V17.5C14.04 16.9477 13.5923 16.5 13.04 16.5H11.54C10.9878 16.5 10.54 16.9477 10.54 17.5V18.7929C10.54 18.9804 10.6145 19.1603 10.7471 19.2929C11.2548 19.8006 11.54 20.4891 11.54 21.2071V23C11.54 23.5523 11.0923 24 10.54 24C9.98775 24 9.54004 23.5523 9.54004 23V21.2071C9.54004 21.0196 9.46554 20.8397 9.33293 20.7071C8.82525 20.1994 8.54004 19.5109 8.54004 18.7929V17.5C8.54004 16.4093 9.12214 15.4545 9.99264 14.9293C9.55416 14.4078 9.29004 13.7347 9.29004 13V12.5C9.29004 11.1162 10.2269 9.95125 11.501 9.60484C11.3176 8.68953 10.5093 8 9.54004 8H5.54004C4.43547 8 3.54004 8.89543 3.54004 10V15.5C3.54004 16.1531 3.95744 16.7087 4.54004 16.9146V11.5C4.54004 10.9477 4.98775 10.5 5.54004 10.5C6.09232 10.5 6.54004 10.9477 6.54004 11.5V23C6.54004 23.5523 6.09232 24 5.54004 24C4.98775 24 4.54004 23.5523 4.54004 23V18.9646C2.84389 18.7219 1.54004 17.2632 1.54004 15.5V10C1.54004 7.86814 3.20779 6.12581 5.30978 6.00652C4.83127 5.47499 4.54004 4.7715 4.54004 4V3ZM12.1307 11.5126C11.6541 11.589 11.29 12.002 11.29 12.5V13C11.29 13.5523 11.7378 14 12.29 14C12.8423 14 13.29 13.5523 13.29 13V12.5C13.29 12.0936 13.0476 11.7438 12.6994 11.5874C12.6475 11.5957 12.5943 11.6 12.54 11.6C12.3942 11.6 12.2556 11.5688 12.1307 11.5126ZM7.54004 2C6.98775 2 6.54004 2.44772 6.54004 3V4C6.54004 4.55228 6.98775 5 7.54004 5C8.09232 5 8.54004 4.55228 8.54004 4V3C8.54004 2.44772 8.09232 2 7.54004 2ZM15.54 3C14.9878 3 14.54 3.44772 14.54 4V5C14.54 5.55228 14.9878 6 15.54 6C16.0923 6 16.54 5.55228 16.54 5V4C16.54 3.44772 16.0923 3 15.54 3Z" fill="currentColor"/>
</svg>
