<svg  viewBox="0 0 24 24" fill="none" xmlns="http://www.w3.org/2000/svg">
<path d="M11.3512 11.8838V14.7201H10.465V7.71855H12.8153C13.3822 7.70738 13.9327 7.92513 14.3345 8.32714C15.1381 9.08648 15.1876 10.3651 14.4335 11.1858C14.4005 11.2193 14.3675 11.2528 14.3345 11.2863C13.9217 11.6828 13.4153 11.8838 12.8153 11.8838H11.3512ZM11.3512 8.57839V11.0239H12.8373C13.1676 11.0351 13.4868 10.9011 13.7125 10.661C14.1748 10.1752 14.1638 9.39356 13.685 8.92456C13.4593 8.70122 13.1566 8.57839 12.8373 8.57839H11.3512Z" fill="#3C4043"/>
<path d="M17.0151 9.77325C17.6701 9.77325 18.1875 9.95192 18.5673 10.3037C18.9471 10.6554 19.1343 11.1468 19.1343 11.7665V14.7201H18.2866V14.0557H18.2481C17.8793 14.6029 17.3949 14.8765 16.7839 14.8765C16.2665 14.8765 15.8262 14.7201 15.4794 14.4075C15.1381 14.1171 14.9455 13.6872 14.9565 13.235C14.9565 12.738 15.1436 12.3472 15.5124 12.0513C15.8812 11.7554 16.3766 11.6102 16.9931 11.6102C17.5215 11.6102 17.9509 11.7107 18.2921 11.9005V11.6939C18.2921 11.3869 18.16 11.0965 17.9288 10.8955C17.6921 10.6833 17.3894 10.5661 17.0757 10.5661C16.5803 10.5661 16.1895 10.7783 15.9032 11.2026L15.1216 10.7057C15.54 10.0859 16.173 9.77325 17.0151 9.77325ZM15.8702 13.2517C15.8702 13.4862 15.9803 13.704 16.1619 13.838C16.3601 13.9943 16.6023 14.078 16.85 14.0725C17.2243 14.0725 17.5821 13.9217 17.8463 13.6537C18.138 13.3745 18.2866 13.0451 18.2866 12.6655C18.0114 12.4421 17.6261 12.3304 17.1307 12.336C16.7729 12.336 16.4702 12.4254 16.228 12.5985C15.9913 12.7715 15.8702 12.9893 15.8702 13.2517Z" fill="#3C4043"/>
<path fill-rule="evenodd" clip-rule="evenodd" d="M23.9999 9.92957L21.0386 16.8251H20.1249L21.2257 14.413L19.2827 9.92957H20.246L21.6496 13.3689H21.6661L23.0366 9.92957H23.9999Z" fill="#3C4043"/>
<path fill-rule="evenodd" clip-rule="evenodd" d="M7.76781 11.2696C7.76781 10.996 7.74579 10.7224 7.70176 10.4544H3.96436V12.001H6.10552C6.01745 12.4979 5.73123 12.9446 5.3129 13.2238V14.2288H6.58989C7.33847 13.5308 7.76781 12.4979 7.76781 11.2696Z" fill="#4285F4"/>
<path fill-rule="evenodd" clip-rule="evenodd" d="M3.96441 15.2003C5.03224 15.2003 5.93494 14.843 6.58995 14.2288L5.31296 13.2238C4.95518 13.4695 4.49833 13.6091 3.96441 13.6091C2.92961 13.6091 2.05443 12.9 1.74069 11.9508H0.425171V12.9893C1.09669 14.3461 2.46725 15.2003 3.96441 15.2003Z" fill="#34A853"/>
<path fill-rule="evenodd" clip-rule="evenodd" d="M1.74072 11.9508C1.5756 11.4539 1.5756 10.9123 1.74072 10.4098V9.37683H0.425204C-0.141735 10.5103 -0.141735 11.8503 0.425204 12.9837L1.74072 11.9508Z" fill="#FBBC04"/>
<path fill-rule="evenodd" clip-rule="evenodd" d="M3.96441 8.75148C4.53135 8.74032 5.07627 8.95807 5.48359 9.35449L6.61747 8.20431C5.89641 7.52314 4.94968 7.14905 3.96441 7.16022C2.46725 7.16022 1.09669 8.02006 0.425171 9.37682L1.74069 10.4153C2.05443 9.46057 2.92961 8.75148 3.96441 8.75148Z" fill="#EA4335"/>
</svg>
