<svg  viewBox="0 0 24 24" fill="none" xmlns="http://www.w3.org/2000/svg">
<path fill-rule="evenodd" clip-rule="evenodd" d="M20.75 2.375C20.75 1.82272 20.3023 1.375 19.75 1.375H4.25C3.69772 1.375 3.25 1.82272 3.25 2.375C3.25 2.92728 3.69772 3.375 4.25 3.375H5.75V6.75C5.75 8.94546 6.8948 10.8845 8.61741 12C6.8948 13.1155 5.75 15.0545 5.75 17.25V20.625H4.25C3.69772 20.625 3.25 21.0727 3.25 21.625C3.25 22.1773 3.69772 22.625 4.25 22.625H19.75C20.3023 22.625 20.75 22.1773 20.75 21.625C20.75 21.0727 20.3023 20.625 19.75 20.625H18.25V17.25C18.25 15.0545 17.1052 13.1155 15.3826 12C17.1052 10.8845 18.25 8.94546 18.25 6.75V3.375H19.75C20.3023 3.375 20.75 2.92728 20.75 2.375ZM7.75 5.75V3.375H16.25V5.75H7.75ZM12 11C10.0088 11 8.32335 9.60787 7.86991 7.75H16.1301C15.6767 9.60787 13.9912 11 12 11ZM7.75 17.25C7.75 14.9148 9.66478 13 12 13C14.3352 13 16.25 14.9148 16.25 17.25V18.2462C15.877 17.8151 15.472 17.4141 15.0789 17.0567C14.4427 16.4783 13.8107 15.9903 13.3401 15.6481C13.104 15.4763 12.9064 15.3398 12.7664 15.2453C12.6964 15.198 12.6407 15.1611 12.6017 15.1356L12.5559 15.1058L12.543 15.0975L12.5377 15.0941C12.5377 15.0941 12.5369 15.0936 12 15.9373L12.5369 15.0936L12 14.752L11.4631 15.0936L11.461 15.095L11.457 15.0975L11.4441 15.1058L11.3983 15.1356C11.3593 15.1611 11.3036 15.198 11.2336 15.2453C11.0936 15.3398 10.896 15.4763 10.6599 15.6481C10.1893 15.9903 9.55733 16.4783 8.92108 17.0567C8.52799 17.4141 8.12303 17.8151 7.75 18.2462V17.25ZM8.49801 20.625H15.502C15.4279 20.4886 15.3397 20.3453 15.2365 20.1952C14.8455 19.6265 14.3049 19.0559 13.7336 18.5366C13.1667 18.0212 12.5955 17.5795 12.1638 17.2655C12.1065 17.2238 12.0518 17.1845 12 17.1477C11.9482 17.1845 11.8935 17.2238 11.8362 17.2655C11.4045 17.5795 10.8333 18.0212 10.2664 18.5366C9.69514 19.0559 9.15451 19.6265 8.76349 20.1952C8.66032 20.3453 8.57212 20.4886 8.49801 20.625ZM12 15.9373L11.4631 15.0936C11.4631 15.0936 11.4631 15.0936 12 15.9373Z" fill="currentColor"/>
</svg>
