<svg  viewBox="0 0 24 24" fill="none" xmlns="http://www.w3.org/2000/svg">
<path d="M11.8598 3L11.2085 5.87829L8.93129 8.41447C8.65325 8.72353 8.4998 9.12512 8.4998 9.54112V17.3158C8.4998 18.2463 9.2516 19 10.1798 19H16.9261C17.5485 19 18.112 18.6326 18.3649 18.0625L20.8865 12.3734C21.0268 12.0584 21.0998 11.717 21.0998 11.3717V10.5789C21.0998 9.65263 20.3438 8.89474 19.4198 8.89474H13.5398C13.5398 8.89474 14.3798 6.89834 14.3798 5.41118C14.3798 3.10213 11.8598 3 11.8598 3ZM4.2998 8.89474V19H6.8198V8.89474H4.2998Z" fill="currentColor"/>
</svg>
