<svg viewBox="0 0 24 24" fill="none" xmlns="http://www.w3.org/2000/svg">
<path fill-rule="evenodd" clip-rule="evenodd" d="M21.693 2.2791C21.9768 2.55187 22.0741 2.9657 21.9417 3.33636L15.5132 21.3364C15.3732 21.7282 15.0053 21.9924 14.5893 21.9999C14.1733 22.0073 13.7961 21.7564 13.6423 21.3698L10.6786 13.9224L2.67661 11.1877C2.28117 11.0525 2.01146 10.6857 2.00036 10.268C1.98925 9.85024 2.23908 9.46964 2.62677 9.31366L20.6268 2.07229C20.9919 1.92539 21.4093 2.00634 21.693 2.2791ZM5.86896 10.1651L11.7609 12.1788C12.0373 12.2732 12.2586 12.4839 12.3666 12.7553L14.5209 18.1684L19.3104 4.75763L5.86896 10.1651Z" fill="currentColor"/>
</svg>
