<svg  viewBox="0 0 24 24" fill="none" xmlns="http://www.w3.org/2000/svg">
<path d="M18.248 8.87407L18.2017 8.86858C18.1346 8.86064 18.0671 8.85839 18 8.8507V6.99906C18 3.69098 15.3086 1 12 1C8.69141 1 6 3.69098 6 6.99906V8.8507C5.93292 8.85839 5.86536 8.86064 5.79828 8.86858L5.75195 8.87407C4.7511 8.99276 4 9.80025 4 10.7576V19.7445C4 20.7018 4.7511 21.5093 5.75195 21.628L5.79828 21.6335C7.85754 21.8778 9.92877 22 12 22C14.0712 22 16.1425 21.8778 18.2017 21.6335L18.248 21.628C19.2489 21.5093 20 20.7018 20 19.7445V10.7576C20 9.80025 19.2489 8.99276 18.248 8.87407ZM8 6.99906C8 4.79384 9.79395 2.99969 12 2.99969C14.2061 2.99969 16 4.79384 16 6.99906V8.67311C14.6683 8.57163 13.3348 8.50212 12 8.50212C10.6652 8.50212 9.33167 8.57163 8 8.67311V6.99906ZM9.5 15.2511C9.5 15.8033 9.05231 16.2509 8.5 16.2509C7.94769 16.2509 7.5 15.8033 7.5 15.2511C7.5 14.6988 7.94769 14.2512 8.5 14.2512C9.05231 14.2512 9.5 14.6988 9.5 15.2511ZM12 14.2512C12.5523 14.2512 13 14.6988 13 15.2511C13 15.8033 12.5523 16.2509 12 16.2509C11.4477 16.2509 11 15.8033 11 15.2511C11 14.6988 11.4477 14.2512 12 14.2512ZM14.5 15.2511C14.5 14.6988 14.9477 14.2512 15.5 14.2512C16.0523 14.2512 16.5 14.6988 16.5 15.2511C16.5 15.8033 16.0523 16.2509 15.5 16.2509C14.9477 16.2509 14.5 15.8033 14.5 15.2511Z" fill="currentColor"/>
</svg>
