<svg  viewBox="0 0 24 24" fill="none" xmlns="http://www.w3.org/2000/svg">
<path d="M16 5.19C15.0807 5.19 14.1705 5.36966 13.3212 5.71871C12.4719 6.06776 11.7003 6.57938 11.0502 7.22435C10.4002 7.86931 9.88462 8.635 9.53284 9.47769C9.18106 10.3204 9 11.2236 9 12.1357C9 13.0478 9.18106 13.951 9.53284 14.7937C9.88462 15.6364 10.4002 16.4021 11.0502 17.047C11.7003 17.692 12.4719 18.2036 13.3212 18.5527C14.1705 18.9017 15.0807 19.0814 16 19.0814C16.9192 19.0814 17.8295 18.9017 18.6787 18.5527C19.528 18.2036 20.2997 17.692 20.9497 17.047C21.5997 16.4021 22.1153 15.6364 22.4671 14.7937C22.8189 13.951 22.9999 13.0478 22.9999 12.1357C22.9999 11.2236 22.8189 10.3204 22.4671 9.47769C22.1153 8.635 21.5997 7.86931 20.9497 7.22435C20.2997 6.57938 19.528 6.06776 18.6787 5.71871C17.8295 5.36966 16.9192 5.19 16 5.19Z" fill="#FF9800"/>
<path d="M7.99998 5.19C7.08073 5.19 6.17048 5.36966 5.3212 5.71871C4.47192 6.06776 3.70025 6.57938 3.05025 7.22435C2.40024 7.86931 1.88462 8.635 1.53284 9.47769C1.18106 10.3204 1 11.2236 1 12.1357C1 13.0478 1.18106 13.951 1.53284 14.7937C1.88462 15.6364 2.40024 16.4021 3.05025 17.047C3.70025 17.692 4.47192 18.2036 5.3212 18.5527C6.17048 18.9017 7.08073 19.0814 7.99998 19.0814C8.91923 19.0814 9.82947 18.9017 10.6788 18.5527C11.528 18.2036 12.2997 17.692 12.9497 17.047C13.5997 16.4021 14.1153 15.6364 14.4671 14.7937C14.8189 13.951 15 13.0478 15 12.1357C15 11.2236 14.8189 10.3204 14.4671 9.47769C14.1153 8.635 13.5997 7.86931 12.9497 7.22435C12.2997 6.57938 11.528 6.06776 10.6788 5.71871C9.82947 5.36966 8.91923 5.19 7.99998 5.19Z" fill="#D50000"/>
<path d="M9 12.1268C9 14.4923 10.188 16.5792 12 17.8378C13.812 16.5792 15 14.4923 15 12.1268C15 9.76128 13.812 7.67438 12 6.41577C10.188 7.67438 9 9.76128 9 12.1268Z" fill="#FF3D00"/>
</svg>
