<svg  viewBox="0 0 24 24" fill="none" xmlns="http://www.w3.org/2000/svg">
<path fill-rule="evenodd" clip-rule="evenodd" d="M13 17.9291C16.02 17.4971 18.4179 15.1375 18.9079 12.137C19.0059 11.538 18.5179 11 17.9119 11C17.4179 11 17.0109 11.364 16.9279 11.852C16.5229 14.207 14.4709 16 11.9999 16C9.52893 16 7.47693 14.207 7.07193 11.852C6.98893 11.364 6.58293 11 6.08793 11C5.48193 11 4.99393 11.538 5.09193 12.137C5.58194 15.1375 7.97998 17.4972 11 17.9291V21C11 21.552 11.448 22 12 22C12.552 22 13 21.552 13 21V17.9291ZM12 2C13.657 2 15 3.343 15 5V11C15 12.657 13.657 14 12 14C10.343 14 9 12.657 9 11V5C9 3.343 10.343 2 12 2Z" fill="currentColor"/>
</svg>
