<svg  viewBox="0 0 24 24" fill="none" xmlns="http://www.w3.org/2000/svg">
<path fill-rule="evenodd" clip-rule="evenodd" d="M3.70711 2.29289C3.31658 1.90237 2.68342 1.90237 2.29289 2.29289C1.90237 2.68342 1.90237 3.31658 2.29289 3.70711L20.2929 21.7071C20.6834 22.0976 21.3166 22.0976 21.7071 21.7071C22.0976 21.3166 22.0976 20.6834 21.7071 20.2929L17.1523 15.7381C18.0563 14.7555 18.6828 13.5137 18.9077 12.137C19.0057 11.538 18.5177 11 17.9117 11C17.4177 11 17.0107 11.364 16.9277 11.852C16.7663 12.7906 16.3432 13.64 15.7363 14.3221L14.3183 12.9041C14.7441 12.3861 14.9998 11.7229 14.9998 11V5C14.9998 3.343 13.6568 2 11.9998 2C10.3428 2 8.99976 3.343 8.99976 5V7.58554L3.70711 2.29289ZM12.9998 17.9291C13.2862 17.8881 13.567 17.8298 13.8411 17.7553L12.0851 15.9993C12.0567 15.9998 12.0282 16 11.9997 16C9.52868 16 7.47668 14.207 7.07168 11.852C6.98868 11.364 6.58268 11 6.08768 11C5.48168 11 4.99368 11.538 5.09168 12.137C5.58169 15.1375 7.97973 17.4972 10.9998 17.9291V21C10.9998 21.552 11.4478 22 11.9998 22C12.5518 22 12.9998 21.552 12.9998 21V17.9291Z" fill="currentColor"/>
</svg>
