<svg  viewBox="0 0 24 24" fill="none" xmlns="http://www.w3.org/2000/svg">
<path d="M21.7143 21H2.28571C1.02857 21 0 19.98 0 18.7333V6.26667C0 5.02 1.02857 4 2.28571 4H21.7143C22.9714 4 24 5.02 24 6.26667V18.7333C24 19.98 22.9714 21 21.7143 21Z" fill="#ECEFF1"/>
<path d="M13.8333 9.66L12.2619 12.6H12.131V9H10.1667V15H11.9345C12.3929 15 12.8512 14.76 12.9821 14.34L14.5536 11.4H14.75V15H16.7143V9H14.9464C14.4881 9 14.0298 9.24 13.8333 9.66ZM5.84524 9.78L4.99405 12.54H4.8631L4.01191 9.78C3.88095 9.3 3.4881 9 2.96429 9H1V15H2.96429V11.46H3.09524L4.20833 15H5.58333L6.69643 11.46H6.89286V15H8.85714V9H6.89286C6.36905 9 5.97619 9.3 5.84524 9.78Z" fill="#4CAF50"/>
<path d="M20.9047 9H16.7142C16.9974 10.38 18.1866 11.4 19.6589 11.4H22.9433C22.9433 11.28 22.9999 11.16 22.9999 10.98C22.9433 9.9 22.0373 9 20.9047 9Z" fill="#0091EA"/>
<path d="M17.762 12.6V15H19.3989V13.56H21.3086C22.0725 13.56 22.7272 13.176 23.0001 12.6H17.762Z" fill="#4CAF50"/>
</svg>
