<svg  viewBox="0 0 24 24" fill="none" xmlns="http://www.w3.org/2000/svg">
<path d="M20.8222 14.4109L19.7778 13.6364V9.81818C19.7778 6.16364 17.1556 3.10909 13.6667 2.36727V1.63636C13.6667 0.730909 12.9222 0 12 0C11.0778 0 10.3333 0.730909 10.3333 1.63636V2.36727C6.84444 3.10909 4.22222 6.16364 4.22222 9.81818V13.6364L3.17778 14.4109C2.43333 14.9564 2 15.8073 2 16.7127C2 18.1309 3.04444 19.3309 4.46667 19.56C6.3 19.8655 8.98889 20.1818 12 20.1818C15.0111 20.1818 17.7 19.8655 19.5333 19.5709C20.9556 19.3418 22 18.1418 22 16.7236C22 15.8073 21.5667 14.9564 20.8222 14.4109ZM19.1667 17.4109C17.5 17.6836 14.9111 18 12 18C9.08889 18 6.48889 17.6836 4.83333 17.4109C4.47778 17.3564 4.22222 17.0618 4.22222 16.7127C4.22222 16.4945 4.33333 16.2764 4.51111 16.1455L5.55556 15.3818L6.44444 14.7273V13.6364V9.81818C6.44444 6.80727 8.93333 4.36364 12 4.36364C15.0667 4.36364 17.5556 6.80727 17.5556 9.81818V13.6364V14.7273L18.4444 15.3818L19.4889 16.1564C19.6667 16.2873 19.7778 16.4945 19.7778 16.7127C19.7778 17.0618 19.5222 17.3564 19.1667 17.4109ZM12 21.2727C12.9667 21.2727 13.9 21.24 14.7778 21.1855V21.2727C14.7778 22.7782 13.5333 24 12 24C10.4667 24 9.22222 22.7782 9.22222 21.2727V21.1855C10.1 21.24 11.0333 21.2727 12 21.2727Z" fill="currentColor"/>
</svg>
