<svg  viewBox="0 0 24 24" fill="none" xmlns="http://www.w3.org/2000/svg">
<path fill-rule="evenodd" clip-rule="evenodd" d="M6 2.5H18C18.8287 2.5 19.5 3.15404 19.5 3.96154V20.0385C19.5 20.846 18.8287 21.5 18 21.5H6C5.17125 21.5 4.5 20.846 4.5 20.0385V3.96154C4.5 3.15404 5.17125 2.5 6 2.5ZM8.75251 6.51925C8.54551 6.86928 8.66851 7.31578 9.02701 7.51748L10.5 8.34617L9.02701 9.17486C8.66851 9.37655 8.54551 9.82305 8.75251 10.1731C8.89126 10.4077 9.14326 10.5385 9.40276 10.5385C9.53026 10.5385 9.65926 10.5071 9.77701 10.4406L11.25 9.61186V11.2692C11.25 11.6734 11.586 12 12 12C12.414 12 12.75 11.6734 12.75 11.2692V9.61186L14.223 10.4406C14.3408 10.5071 14.4705 10.5385 14.5973 10.5385C14.8568 10.5385 15.108 10.4077 15.2475 10.1731C15.4545 9.82378 15.3323 9.37655 14.973 9.17486L13.5 8.34617L14.973 7.51748C15.3315 7.31578 15.4545 6.86928 15.2475 6.51925C15.0398 6.16921 14.5808 6.04936 14.223 6.25178L12.75 7.08048V5.42309C12.75 5.01898 12.414 4.69232 12 4.69232C11.586 4.69232 11.25 5.01898 11.25 5.42309V7.08048L9.77701 6.25178C9.41776 6.04863 8.95951 6.16921 8.75251 6.51925ZM13.5 18.5769H7.49995C7.08595 18.5769 6.74995 18.2495 6.74995 17.8461C6.74995 17.4427 7.08595 17.1154 7.49995 17.1154H13.5C13.914 17.1154 14.25 17.4427 14.25 17.8461C14.25 18.2495 13.914 18.5769 13.5 18.5769ZM7.49995 15.6539H16.5C16.914 15.6539 17.25 15.3265 17.25 14.9231C17.25 14.5197 16.914 14.1923 16.5 14.1923H7.49995C7.08595 14.1923 6.74995 14.5197 6.74995 14.9231C6.74995 15.3265 7.08595 15.6539 7.49995 15.6539Z" fill="currentColor"/>
</svg>
