<svg  viewBox="0 0 24 24" fill="none" xmlns="http://www.w3.org/2000/svg">
<path fill-rule="evenodd" clip-rule="evenodd" d="M3.93333 7.5C3.93333 5.04075 5.4088 3 7.96667 3C9.52573 3 9.8 4.125 9.8 4.125C10.3449 4.125 10.7803 4.33364 11.1191 4.68164C10.7437 5.50814 10.5333 6.4605 10.5333 7.5C10.5333 8.022 10.6345 8.52837 10.7482 8.93262C10.5964 9.29937 10.5218 9.7403 10.5849 10.248C10.6612 10.8593 10.8416 11.3306 11.0719 11.7041C10.7998 12.5074 10.0809 13.3582 9.8 13.5V15C9.90193 15.3127 10.0798 15.5484 10.3013 15.7441C8.96664 16.4919 7.6 17.868 7.6 21H1C1 17.7427 2.69379 17.0838 4.15471 16.5154C5.04843 16.1678 5.85499 15.854 6.13333 15V13.5C5.80333 13.3328 4.8602 12.1837 4.7612 11.2852C4.5016 11.2649 4.0937 11.0213 3.97344 10.0591C3.9089 9.54308 4.16459 9.25263 4.32005 9.16113C4.32005 9.16113 3.93333 8.328 3.93333 7.5ZM12 7.5C12 5.04075 13.4755 3.00071 16.0333 3.00146C17.5924 3.00146 17.8667 4.12646 17.8667 4.12646C19.3678 4.12646 20.0667 5.68046 20.0667 7.50146C20.0667 8.40971 19.6799 9.16113 19.6799 9.16113C19.8354 9.25263 20.0911 9.54233 20.0266 10.0591C19.9063 11.0213 19.4984 11.2664 19.2388 11.2866C19.1398 12.1844 18.1967 13.3327 17.8667 13.5V15C18.145 15.854 18.9516 16.1678 19.8453 16.5154C21.3062 17.0838 23 17.7427 23 21H9.06667C9.06667 17.7427 10.7605 17.0838 12.2214 16.5154C13.1151 16.1678 13.9217 15.854 14.2 15V13.5C13.87 13.3327 12.9269 12.1837 12.8279 11.2852C12.5683 11.2649 12.1604 11.0213 12.0401 10.0591C11.9756 9.54308 12.2313 9.25263 12.3867 9.16113C12.3867 9.16113 12 8.328 12 7.5Z" fill="currentColor"/>
</svg>
