<svg  viewBox="0 0 24 24" fill="none" xmlns="http://www.w3.org/2000/svg">
<path fill-rule="evenodd" clip-rule="evenodd" d="M3.5 5.81826C3.5 4.54715 4.54707 3.50008 5.81818 3.50008H17.4091C17.6878 3.49614 17.947 3.64255 18.0875 3.88325C18.2279 4.12395 18.2279 4.42166 18.0875 4.66236C17.947 4.90306 17.6878 5.04947 17.4091 5.04553H5.81818C5.38157 5.04553 5.04545 5.38165 5.04545 5.81826C5.04545 6.25487 5.38157 6.59099 5.81818 6.59099H12.7727H18.9545C19.8084 6.59099 20.5 7.28258 20.5 8.13644V18.9546C20.5 19.8085 19.8084 20.5001 18.9545 20.5001H5.81818C4.53777 20.5001 3.5 19.4623 3.5 18.1819V5.81826ZM18.9545 13.5455C18.9545 12.6917 18.263 12.0001 17.4091 12.0001C16.5552 12.0001 15.8636 12.6917 15.8636 13.5455C15.8636 14.3994 16.5552 15.091 17.4091 15.091C18.263 15.091 18.9545 14.3994 18.9545 13.5455Z" fill="currentColor"/>
</svg>
