<svg  viewBox="0 0 24 24" fill="none" xmlns="http://www.w3.org/2000/svg">
<path fill-rule="evenodd" clip-rule="evenodd" d="M8.39965 4.60608C8.55723 4.2384 8.91876 4 9.31879 4H14.6812C15.0812 4 15.4428 4.2384 15.6004 4.60608L16.3211 6.28784C16.6363 7.02321 17.3593 7.5 18.1594 7.5H20C20.5523 7.5 21 7.94772 21 8.5V19C21 19.5523 20.5523 20 20 20H4C3.44772 20 3 19.5523 3 19V8.5C3 7.94772 3.44772 7.5 4 7.5H5.8406C6.64066 7.5 7.36374 7.02321 7.67889 6.28784L8.39965 4.60608ZM9.31879 2C8.11871 2 7.03409 2.71519 6.56136 3.81824L5.8406 5.5H4C2.34315 5.5 1 6.84315 1 8.5V19C1 20.6569 2.34315 22 4 22H20C21.6569 22 23 20.6569 23 19V8.5C23 6.84315 21.6569 5.5 20 5.5L18.1594 5.5L17.4386 3.81824C16.9659 2.71519 15.8813 2 14.6812 2H9.31879ZM9 13C9 11.3431 10.3431 10 12 10C13.6569 10 15 11.3431 15 13C15 14.6569 13.6569 16 12 16C10.3431 16 9 14.6569 9 13ZM12 8C9.23858 8 7 10.2386 7 13C7 15.7614 9.23858 18 12 18C14.7614 18 17 15.7614 17 13C17 10.2386 14.7614 8 12 8Z" fill="currentColor"/>
</svg>
