<svg viewBox="0 0 24 24" fill="none" xmlns="http://www.w3.org/2000/svg">
<path d="M17.4825 15.8667L14.5751 14.4339C14.3009 14.2986 14.1304 14.0268 14.1304 13.7244V12.7101C14.2001 12.6261 14.2735 12.5304 14.3493 12.4248C14.7263 11.8998 15.0286 11.3154 15.2483 10.6851C15.6777 10.491 15.9565 10.0725 15.9565 9.6V8.4C15.9565 8.1111 15.847 7.8312 15.6522 7.6125V6.0168C15.6692 5.8518 15.7362 4.8696 15.0155 4.0593C14.3903 3.3564 13.376 3 12 3C10.624 3 9.60965 3.3564 8.98452 4.059C8.26383 4.8693 8.33078 5.8518 8.34783 6.0168V7.6125C8.15304 7.8312 8.04348 8.1111 8.04348 8.4V9.6C8.04348 9.9651 8.21178 10.3056 8.49909 10.5327C8.77787 11.6208 9.3613 12.4407 9.56522 12.7038V13.6965C9.56522 13.9869 9.40452 14.2533 9.14613 14.3925L6.43104 15.8523C5.54813 16.3272 5 17.2374 5 18.2286V19.2C5 20.6238 9.57891 21 12 21C14.4211 21 19 20.6238 19 19.2V18.2871C19 17.2557 18.4184 16.3281 17.4825 15.8667Z" fill="currentColor"/>
</svg>
