<svg  viewBox="0 0 24 24" fill="none" xmlns="http://www.w3.org/2000/svg">
<path fill-rule="evenodd" clip-rule="evenodd" d="M15.8637 3.16953L20.7175 5.24802C21.576 5.61558 22.0968 6.52009 21.985 7.4494L21.3532 12.7035C21.2753 13.3614 20.8856 13.9521 20.3133 14.2834L9.03764 20.8111C8.36537 21.2003 7.503 20.9686 7.11486 20.2945L2.18836 11.7384C1.80022 11.0643 2.03129 10.1996 2.70357 9.81036L13.9793 3.28263C14.5516 2.95131 15.2565 2.90825 15.8637 3.16953ZM17.7558 8.43017C18.0472 8.9362 18.6932 9.10979 19.1979 8.81763C19.7025 8.52547 19.8756 7.87765 19.5843 7.37162C19.2929 6.86558 18.6469 6.692 18.1422 6.98416C17.6375 7.27632 17.4644 7.92413 17.7558 8.43017Z" fill="currentColor"/>
</svg>
