<svg  viewBox="0 0 24 24" fill="none" xmlns="http://www.w3.org/2000/svg">
<path d="M14 12.67H16V15.67H14V12.67ZM14 11.33H16V8.33H14V11.33ZM20.5 12C20.5 13.1 21.22 14.06 22.29 14.38L23 14.59V18.5C23 19.88 21.88 21 20.5 21H3.5C2.12 21 1 19.88 1 18.5V14.59L1.71 14.38C2.78 14.06 3.5 13.1 3.5 12C3.5 10.9 2.78 9.94 1.71 9.62L1 9.41V5.5C1 4.12 2.12 3 3.5 3H20.5C21.88 3 23 4.12 23 5.5V9.41L22.29 9.62C21.22 9.94 20.5 10.9 20.5 12ZM21 5.5C21 5.22 20.78 5 20.5 5H16V7H14V5H3.5C3.22 5 3 5.22 3 5.5V7.98C4.52 8.73 5.5 10.26 5.5 12C5.5 13.74 4.52 15.27 3 16.02V18.5C3 18.78 3.22 19 3.5 19H14V17H16V19H20.5C20.78 19 21 18.78 21 18.5V16.02C19.48 15.27 18.5 13.74 18.5 12C18.5 10.26 19.48 8.73 21 7.98V5.5Z" fill="currentColor"/>
</svg>
