<svg  viewBox="0 0 24 24" fill="none" xmlns="http://www.w3.org/2000/svg">
<path fill-rule="evenodd" clip-rule="evenodd" d="M4 4.92856C4 4.65242 4.22386 4.42856 4.5 4.42856H17.4286L17.4286 5.42856H4.5C4.22386 5.42856 4 5.2047 4 4.92856ZM19.4286 4.42856V5.42856H19.5714C20.676 5.42856 21.5714 6.32399 21.5714 7.42856V9.30854C22.263 9.41195 22.8571 9.99604 22.8571 10.7956V13.7899C22.8571 14.8919 22.3479 15.8749 21.5519 16.5164C21.5647 16.5804 21.5714 16.6465 21.5714 16.7143V19.5714C21.5714 20.676 20.676 21.5714 19.5714 21.5714H5.5C3.567 21.5714 2 20.0044 2 18.0714V5.14285C2 5.11492 2.00115 5.08726 2.00339 5.0599C2.00114 5.01641 2 4.97262 2 4.92856C2 3.54785 3.11929 2.42856 4.5 2.42856H17.4286C18.5331 2.42856 19.4286 3.32399 19.4286 4.42856ZM19.5714 7.42856V9.71846H16.0714C13.9806 9.71846 12.2857 11.4134 12.2857 13.5042C12.2857 15.595 13.9806 17.2899 16.0714 17.2899H19.3571C19.4291 17.2899 19.5005 17.2877 19.5714 17.2834V19.5714H5.5C4.67157 19.5714 4 18.8999 4 18.0714V7.37855C4.16156 7.41134 4.32877 7.42856 4.5 7.42856H19.5714ZM20.8571 11.5821C20.569 11.672 20.2674 11.7185 19.9623 11.7185H16.0714C15.0852 11.7185 14.2857 12.5179 14.2857 13.5042C14.2857 14.4904 15.0852 15.2899 16.0714 15.2899H19.3571C20.1856 15.2899 20.8571 14.6183 20.8571 13.7899V11.5821ZM16.7143 12.6428C16.2409 12.6428 15.8571 13.0266 15.8571 13.5C15.8571 13.9734 16.2409 14.3571 16.7143 14.3571H17.1429C17.6162 14.3571 18 13.9734 18 13.5C18 13.0266 17.6162 12.6428 17.1429 12.6428H16.7143Z" fill="currentColor"/>
</svg>
