<svg  viewBox="0 0 24 24" fill="none" xmlns="http://www.w3.org/2000/svg">
<path d="M12 2C6.4775 2 2 6.4775 2 12C2 17.5225 6.4775 22 12 22C17.5225 22 22 17.5225 22 12C22 6.4775 17.5225 2 12 2ZM12 18.25C11.31 18.25 10.75 17.69 10.75 17C10.75 16.31 11.31 15.75 12 15.75C12.69 15.75 13.25 16.31 13.25 17C13.25 17.69 12.69 18.25 12 18.25ZM13.7233 12.4167C13.1717 12.9258 12.8333 13.26 12.8333 13.6667H11.1667C11.1667 12.5092 11.9575 11.7792 12.5925 11.1917C13.2583 10.5767 13.6667 10.1658 13.6667 9.5C13.6667 8.58083 12.9192 7.83333 12 7.83333C11.0808 7.83333 10.3333 8.58083 10.3333 9.5H8.66667C8.66667 7.66167 10.1617 6.16667 12 6.16667C13.8383 6.16667 15.3333 7.66167 15.3333 9.5C15.3333 10.9292 14.4408 11.7533 13.7233 12.4167Z" fill="currentColor"/>
</svg>
