<svg  viewBox="0 0 24 24" fill="none" xmlns="http://www.w3.org/2000/svg">
<path fill-rule="evenodd" clip-rule="evenodd" d="M11.007 2.06321C11.2323 1.68761 11.6178 1.5 12.0025 1.5C12.3872 1.5 12.771 1.68761 12.9964 2.06321L13.4365 2.79839C13.6239 3.11099 13.9339 3.3207 14.2853 3.41682C14.2916 3.41918 14.2979 3.42155 14.3042 3.42313C14.6596 3.52087 15.0382 3.49121 15.3597 3.3127L16.109 2.89778C16.8748 2.4721 17.8165 3.01605 17.8318 3.89326L17.846 4.7578C17.8517 5.12371 18.0142 5.46325 18.2735 5.72173L18.2814 5.72962C18.5399 5.9881 18.8794 6.1507 19.2454 6.15716L20.1099 6.17136C20.9855 6.1859 21.5303 7.12839 21.1054 7.89413L20.6889 8.6435C20.5104 8.96579 20.4807 9.34276 20.5784 9.69736C20.5809 9.70382 20.5831 9.7114 20.5848 9.71787C20.6801 10.0692 20.8922 10.3777 21.2048 10.5651L21.9384 11.0052C22.6888 11.4559 22.6888 12.5455 21.9352 12.9962L21.2016 13.4363C20.889 13.6237 20.6777 13.9337 20.5816 14.2851C20.5793 14.2914 20.5769 14.2977 20.5753 14.304C20.4776 14.6594 20.5072 15.0372 20.6857 15.3595L21.1022 16.1088C21.5271 16.8746 20.9823 17.8171 20.1067 17.8316L19.2422 17.8458C18.8763 17.8515 18.5367 18.0141 18.2783 18.2733L18.2704 18.2812C18.0119 18.5397 17.8493 18.8793 17.8428 19.2452L17.8286 20.1081C17.8141 20.9837 16.8716 21.5285 16.1059 21.1036L15.3565 20.6871C15.0342 20.5086 14.6572 20.4789 14.3026 20.5767C14.2962 20.5791 14.2886 20.5814 14.2821 20.583C13.9308 20.6783 13.6223 20.8904 13.4349 21.203L12.9948 21.9366C12.5441 22.6878 11.4561 22.6878 11.0054 21.9366L10.5652 21.203C10.3778 20.8904 10.0678 20.6791 9.71648 20.583C9.71002 20.5806 9.70401 20.5783 9.69755 20.5767C9.34214 20.4789 8.9636 20.5086 8.64211 20.6871L7.89274 21.1036C7.127 21.5285 6.18451 20.9837 6.16997 20.1081L6.15577 19.2452C6.15012 18.8793 5.98752 18.5397 5.72823 18.2812L5.72035 18.2733C5.46187 18.0149 5.12232 17.8523 4.75641 17.8458L3.89345 17.8316C3.01786 17.8171 2.47309 16.8746 2.89797 16.1088L3.31288 15.3579C3.4914 15.0356 3.52106 14.6579 3.42332 14.3025C3.42096 14.2962 3.41859 14.2898 3.41701 14.2835C3.32169 13.9322 3.11118 13.6222 2.79858 13.4348L2.0634 12.9946C1.3122 12.5447 1.3122 11.4559 2.0634 11.0052L2.79858 10.5651C3.11118 10.3777 3.32089 10.0677 3.41701 9.71629C3.41937 9.70999 3.42174 9.70367 3.42332 9.69736C3.52106 9.34195 3.4914 8.96421 3.31288 8.64192L2.89797 7.89255C2.47229 7.12681 3.01705 6.18513 3.89345 6.16978L4.75641 6.15558C5.12232 6.14993 5.46187 5.98733 5.72035 5.72804L5.72823 5.72016C5.98671 5.46168 6.14931 5.12213 6.15577 4.75622L6.16997 3.89168C6.18451 3.01609 7.127 2.4721 7.89274 2.89778L8.64054 3.31112C8.96525 3.49124 9.34445 3.52167 9.70228 3.42313L9.7149 3.41997C10.0687 3.32304 10.3794 3.11025 10.5684 2.79523L11.007 2.06321ZM11.3541 9.71944C11.3541 8.37859 10.5248 7.50603 9.25423 7.50603C7.98526 7.50603 7.15441 8.38424 7.15441 9.71944C7.15441 11.0546 7.99092 11.9329 9.25423 11.9329C10.5248 11.9329 11.3541 11.0546 11.3541 9.71944ZM13.823 7.72059H15.7967L12.5278 12.2342L10.2387 16.2808H8.25717L11.474 11.7893L13.823 7.72059ZM8.67367 9.71471C8.67367 9.12748 8.89236 8.78233 9.25423 8.78233C9.62256 8.78233 9.83007 9.12183 9.83007 9.71471C9.83007 10.2955 9.61045 10.6455 9.25423 10.6455C8.89236 10.6455 8.67367 10.2963 8.67367 9.71471ZM14.7538 12.0685C16.0172 12.0685 16.8474 12.9412 16.8474 14.2756C16.8474 15.6173 16.0172 16.4938 14.7538 16.4938C13.4905 16.4938 12.6603 15.6165 12.6603 14.2756C12.6603 12.9412 13.4905 12.0685 14.7538 12.0685ZM14.1717 14.2756C14.1717 13.6884 14.392 13.3448 14.7538 13.3448C15.1149 13.3448 15.3281 13.6819 15.3281 14.2756C15.3281 14.8572 15.1101 15.208 14.7538 15.208C14.392 15.208 14.1717 14.8572 14.1717 14.2756Z" fill="currentColor"/>
</svg>
