<svg viewBox="0 0 25 24" fill="none" xmlns="http://www.w3.org/2000/svg">
<path d="M1.59231 10.492C1.62552 10.5716 1.61503 10.6749 1.5993 10.7376C1.57133 10.8477 1.49443 10.9612 1.26546 10.9612C1.05047 10.9612 0.921127 10.8409 0.921127 10.6597V10.3378H0V10.5936C0 11.3356 0.601267 11.5592 1.24623 11.5592C1.86672 11.5592 2.3771 11.3542 2.45925 10.7986C2.5012 10.5123 2.46974 10.3242 2.45576 10.2531C2.37242 9.85411 1.90726 9.61611 1.50823 9.41196C1.21262 9.26071 0.953298 9.12803 0.912388 8.96222C0.894909 8.89446 0.900153 8.825 0.908892 8.78774C0.933362 8.68101 1.00852 8.56412 1.22176 8.56412C1.42277 8.56412 1.53987 8.6844 1.53987 8.86566V9.07234H2.39633V8.83686C2.39633 8.1135 1.72515 8 1.23924 8C0.630981 8 0.13109 8.19651 0.040201 8.73861C0.0157308 8.88599 0.0122351 9.01982 0.0489404 9.18584C0.133898 9.5743 0.568647 9.80488 0.958367 10.0116C1.25017 10.1663 1.51672 10.3077 1.59231 10.492Z" fill="black"/>
<path d="M3.67224 8.10675L3.03601 11.4305H3.96413L4.43256 8.41337H4.45179L4.90973 11.4305H5.83086L5.19813 8.10675H3.67224Z" fill="black"/>
<path d="M19.8662 10.7156L19.819 8.10675H20.6685V11.3966H19.4467L18.6008 8.69628H18.5815L18.6287 11.3966H17.7863V8.10675H19.0587L19.847 10.7156H19.8662Z" fill="black"/>
<path fill-rule="evenodd" clip-rule="evenodd" d="M8.91235 13.0466H7.61194V16.6855H8.38275V15.6673H8.90711C9.67617 15.6673 10.2774 15.0897 10.2774 14.3544C10.2774 13.6209 9.67792 13.0466 8.91235 13.0466ZM9.50139 14.3544C9.50139 14.7102 9.23221 14.9694 8.86167 14.9694H8.38275V13.7446H8.86167C9.23221 13.7446 9.50139 14.0004 9.50139 14.3544Z" fill="black"/>
<path fill-rule="evenodd" clip-rule="evenodd" d="M11.9956 13.6921C12.3416 13.6921 12.6685 13.8157 12.8957 14.0275V13.7514H13.6613V16.6855H12.8957V16.3839C12.6667 16.6109 12.3346 16.7431 11.9851 16.7431C11.2527 16.7431 10.4941 16.1739 10.4941 15.2201C10.4941 14.4798 11.0202 13.6921 11.9956 13.6921ZM12.0969 16.0553C12.5654 16.0553 12.9324 15.6843 12.9324 15.2116C12.9324 14.7441 12.5654 14.3765 12.0969 14.3782C11.6215 14.3782 11.251 14.7441 11.251 15.2116C11.251 15.6843 11.6233 16.0553 12.0969 16.0553Z" fill="black"/>
<path d="M15.556 15.5996L16.3006 13.7514H17.1099L15.3201 18.0001H14.537L15.1733 16.5025L13.948 13.7514H14.7677L14.7782 13.7785L15.556 15.5996Z" fill="black"/>
<path d="M8.43165 10.6478L8.85464 8.10675H10.2529L10.3298 11.4305H9.47164L9.44891 8.44217H9.43143L8.85813 11.4305H7.9877L7.4144 8.44217H7.39517L7.37419 11.4305H6.51599L6.59115 8.10675H7.98944L8.41243 10.6478H8.43165Z" fill="black"/>
<path d="M12.7525 10.7308C12.7682 10.6681 12.7787 10.5665 12.7455 10.4869C12.6707 10.3042 12.4068 10.164 12.1182 10.0108C11.7324 9.80579 11.3023 9.57738 11.2213 9.1926C11.1846 9.02658 11.1881 8.89614 11.2126 8.74875C11.3017 8.21174 11.7964 8.01862 12.3994 8.01862C12.8801 8.01862 13.5443 8.13042 13.5443 8.84701V9.0774H12.6965V8.87411C12.6965 8.69454 12.5794 8.57596 12.3802 8.57596C12.1687 8.57596 12.0953 8.69285 12.0708 8.79788C12.0621 8.83515 12.0568 8.90461 12.0743 8.97067C12.1152 9.13489 12.3715 9.26634 12.6637 9.41618C13.0589 9.61879 13.5196 9.85503 13.6019 10.2514C13.6159 10.3225 13.6474 10.5072 13.6054 10.7918C13.525 11.3407 13.0199 11.5439 12.4047 11.5439C11.7667 11.5439 11.1707 11.322 11.1707 10.5885V10.3344H12.0813V10.6529C12.0813 10.8324 12.2089 10.951 12.4221 10.951C12.6476 10.951 12.7245 10.8409 12.7525 10.7308Z" fill="black"/>
<path d="M15.6243 10.9324C15.862 10.9324 15.9354 10.7732 15.9529 10.6919C15.9599 10.6563 15.9616 10.6072 15.9616 10.5648V8.10504H16.8303V10.4886C16.8321 10.5496 16.8251 10.6749 16.8216 10.7071C16.7621 11.3271 16.2553 11.5287 15.6243 11.5287C14.9933 11.5287 14.4882 11.3271 14.427 10.7071C14.4235 10.6749 14.4165 10.5496 14.4182 10.4886V8.10504H15.2852V10.5648C15.2834 10.6072 15.2852 10.6563 15.2939 10.6919C15.3114 10.7732 15.3848 10.9324 15.6243 10.9324Z" fill="black"/>
<path d="M23.1295 10.6579C23.1138 10.746 23.0264 10.8985 22.7782 10.8985C22.53 10.8985 22.4444 10.746 22.4304 10.6545C22.4234 10.6173 22.4216 10.5715 22.4216 10.5292V9.00961C22.4216 8.9554 22.4251 8.89611 22.4356 8.85206C22.4548 8.77075 22.5283 8.6115 22.7782 8.6115C23.0404 8.6115 23.1051 8.77922 23.1208 8.85206C23.1313 8.89949 23.1313 8.97911 23.1313 8.97911V9.16546H23.9965V9.05535C23.9965 9.05535 23.9959 9.0454 23.9958 9.02867C23.9956 8.98889 23.9951 8.91075 23.9877 8.83681C23.9248 8.2134 23.3917 8.0152 22.7834 8.0152C22.1752 8.0152 21.6561 8.2151 21.5792 8.83681C21.5722 8.89272 21.5652 8.99605 21.5652 9.05535V10.4546C21.5652 10.5173 21.5669 10.5631 21.5774 10.6732C21.6334 11.2779 22.1752 11.4948 22.7834 11.4948C23.3917 11.4948 23.9335 11.2779 23.9895 10.6732C24 10.5631 24.0017 10.5173 24.0017 10.4546V9.56356H22.7869V10.0498H23.1383V10.5326C23.1383 10.5732 23.1365 10.6207 23.1295 10.6579Z" fill="black"/>
</svg>
