<svg  viewBox="0 0 24 24" fill="none" xmlns="http://www.w3.org/2000/svg">
<path fill-rule="evenodd" clip-rule="evenodd" d="M15.0468 16.4651C13.7854 17.4281 12.2095 18 10.5 18C6.35786 18 3 14.6421 3 10.5C3 6.35786 6.35786 3 10.5 3C14.6421 3 18 6.35786 18 10.5C18 12.2116 17.4266 13.7893 16.4615 15.0515L20.2927 18.8826C20.6832 19.2732 20.6832 19.9063 20.2927 20.2969C19.9022 20.6874 19.269 20.6874 18.8785 20.2969L15.0468 16.4651ZM16 10.5C16 13.5376 13.5376 16 10.5 16C7.46243 16 5 13.5376 5 10.5C5 7.46243 7.46243 5 10.5 5C13.5376 5 16 7.46243 16 10.5Z" fill="currentColor"/>
</svg>
