<svg  viewBox="0 0 24 24" fill="none" xmlns="http://www.w3.org/2000/svg">
<path fill-rule="evenodd" clip-rule="evenodd" d="M8 12C8 9.791 9.791 8 12 8C14.209 8 16 9.791 16 12C16 14.209 14.209 16 12 16C9.791 16 8 14.209 8 12ZM10 12C10 13.105 10.895 14 12 14C13.105 14 14 13.105 14 12C14 10.895 13.105 10 12 10C10.895 10 10 10.895 10 12Z" fill="currentColor"/>
<path fill-rule="evenodd" clip-rule="evenodd" d="M1 12C1 12 4 4 12 4C20 4 23 12 23 12C23 12 20 20 12 20C4 20 1 12 1 12ZM3.192 12.003C4.056 13.732 6.724 18 12 18C17.255 18 19.943 13.714 20.808 11.997C19.944 10.268 17.276 6 12 6C6.745 6 4.058 10.286 3.192 12.003Z" fill="currentColor"/>
</svg>
