<svg  viewBox="0 0 24 24" fill="none" xmlns="http://www.w3.org/2000/svg">
<path fill-rule="evenodd" clip-rule="evenodd" d="M12.0001 7.30435C9.40835 7.30435 7.301 9.41014 7.301 12C7.301 14.5899 9.40835 16.6957 12.0001 16.6957C14.5919 16.6957 16.6993 14.5899 16.6993 12C16.6993 9.41014 14.5919 7.30435 12.0001 7.30435ZM9.3895 12C9.3895 10.5627 10.5618 9.3913 12.0001 9.3913C13.4385 9.3913 14.6108 10.5627 14.6108 12C14.6108 13.4373 13.4385 14.6087 12.0001 14.6087C10.5618 14.6087 9.3895 13.4373 9.3895 12Z" fill="currentColor"/>
<path fill-rule="evenodd" clip-rule="evenodd" d="M14.6991 0H9.30096L8.71173 3.02693L8.62188 3.06088C7.63355 3.43319 6.72795 3.95237 5.93407 4.60396L5.85957 4.66496L2.95076 3.66396L0.25 8.33586L2.57967 10.3599L2.56433 10.4545C2.4744 11.0057 2.42775 11.5131 2.42775 12C2.42775 12.4869 2.47441 12.9938 2.56274 13.5445L2.57848 13.6415L0.250125 15.6656L2.95076 20.3373L5.85957 19.3363L5.93484 19.3979C6.72865 20.0494 7.6344 20.5683 8.62259 20.9406L8.71178 20.9743L9.30103 24H14.6995L15.2875 20.973L15.3771 20.9391C16.3656 20.5667 17.2708 20.0478 18.0648 19.396L18.1393 19.335L21.0481 20.336L23.7488 15.6644L21.4204 13.6403L21.4357 13.546C21.5257 12.9947 21.5724 12.4871 21.5724 12C21.5724 11.5134 21.5258 11.0062 21.4359 10.4554L21.4357 10.454L21.4206 10.3594L23.75 8.33442L21.0494 3.66274L18.1406 4.66375L18.0655 4.60229C17.2716 3.95068 16.3659 3.4317 15.3775 3.0594L15.2883 3.0257L14.6991 0ZM10.5395 4.5675L11.0224 2.08696H12.9778L13.4607 4.5663L14.641 5.01226C15.4235 5.30699 16.1286 5.7132 16.7403 6.21534L17.7184 7.01625L20.1019 6.19604L21.0805 7.88888L19.1751 9.54526L19.3739 10.7868L19.3744 10.7899C19.4501 11.2538 19.4839 11.6471 19.4839 12C19.4839 12.3529 19.45 12.7472 19.3743 13.2111L19.1729 14.4526L21.0793 16.1099L20.1007 17.8027L17.7172 16.9825L16.7391 17.7834C16.1274 18.2856 15.4223 18.6918 14.6397 18.9865L13.4591 19.4326L12.9774 21.913H11.0223L10.5394 19.4337L9.35916 18.9877C8.57658 18.693 7.8715 18.2868 7.25979 17.7847L6.28168 16.9837L3.89822 17.804L2.9196 16.1111L4.82604 14.4538L4.62477 13.2132C4.54996 12.7466 4.51625 12.3529 4.51625 12C4.51625 11.6471 4.55014 11.2528 4.62584 10.7889L4.82729 9.54721L2.91973 7.88988L3.89822 6.19725L6.28168 7.01747L7.25979 6.21656C7.8715 5.71442 8.57658 5.3082 9.35916 5.01347L10.5395 4.5675Z" fill="currentColor"/>
</svg>
