<svg  viewBox="0 0 24 24" fill="none" xmlns="http://www.w3.org/2000/svg">
<path fill-rule="evenodd" clip-rule="evenodd" d="M19.4176 9.8338L22.1156 10.2748C22.3366 10.3109 22.4986 10.5017 22.4982 10.7254V13.2363C22.4982 13.4577 22.3393 13.6476 22.1206 13.6859L19.4189 14.1603C19.2623 14.7017 19.0473 15.223 18.7766 15.7161L20.3735 17.9334C20.5045 18.1151 20.484 18.3648 20.326 18.5232L18.5511 20.2996C18.394 20.4562 18.1475 20.4785 17.9658 20.3502L15.7266 18.7793C15.2326 19.0542 14.7081 19.2733 14.1607 19.4345L13.6837 22.1234C13.6453 22.3411 13.4558 22.5 13.2344 22.5H10.7236C10.5003 22.5 10.31 22.3388 10.2739 22.1193L9.82833 19.4436C9.28187 19.2856 8.75459 19.0679 8.25561 18.7935L6.03235 20.3507C5.85111 20.4781 5.60413 20.4562 5.44754 20.2996L3.67259 18.5232C3.51509 18.3648 3.49454 18.116 3.6242 17.9348L5.19509 15.7375C4.91798 15.2363 4.69793 14.7072 4.53861 14.158L1.87663 13.6859C1.65887 13.6471 1.5 13.4577 1.5 13.2363V10.7254C1.5 10.5026 1.66161 10.3118 1.88165 10.2753L4.54363 9.83198C4.70387 9.28141 4.92391 8.7523 5.20011 8.25241L3.64839 6.03235C3.52102 5.85111 3.54293 5.60459 3.69952 5.448L5.47402 3.6735C5.63243 3.516 5.88033 3.495 6.06248 3.62511L8.26748 5.20011C8.7628 4.92893 9.28872 4.713 9.83654 4.5555L10.273 1.88302C10.309 1.66207 10.4999 1.5 10.7236 1.5H13.2344C13.4563 1.5 13.6458 1.65978 13.6841 1.878L14.1548 4.56509C14.6994 4.7235 15.2244 4.94172 15.7216 5.21654L17.9325 3.62739C18.1142 3.49637 18.3635 3.51691 18.5219 3.67487L20.2973 5.44937C20.4539 5.60641 20.4758 5.85339 20.3484 6.03463L18.7734 8.27935C19.0437 8.77193 19.2596 9.29237 19.4176 9.8338ZM8.80343 12C8.80343 13.7649 10.2342 15.1957 11.9991 15.1957C13.764 15.1957 15.1947 13.7649 15.1947 12C15.1947 10.2351 13.764 8.80435 11.9991 8.80435C10.2342 8.80435 8.80343 10.2351 8.80343 12Z" fill="currentColor"/>
</svg>
