<svg  viewBox="0 0 24 24" fill="none" xmlns="http://www.w3.org/2000/svg">
<path d="M12 4.35043L13.4701 7.53845C13.9805 8.64529 15.0514 9.42233 16.2651 9.56631L19.7464 9.97918L17.1648 12.3672C16.2588 13.2052 15.8613 14.4269 16.1013 15.6355L16.7871 19.0879L13.7316 17.3771C13.204 17.0816 12.6052 16.9255 12 16.9255C11.3948 16.9255 10.796 17.0816 10.2684 17.3771L7.2128 19.0879L7.89862 15.6355C8.13867 14.427 7.74118 13.2052 6.83523 12.3673L4.25353 9.97919L7.73498 9.56632C8.94851 9.42234 10.0194 8.64533 10.5298 7.53849L12 4.35043ZM12 1C11.6257 1 11.2514 1.19778 11.069 1.59335L8.71365 6.70095C8.49088 7.18405 8.03082 7.51718 7.49936 7.58023L1.90369 8.24383C1.03836 8.34647 0.689549 9.40689 1.32712 9.99664L5.47717 13.8355C5.86584 14.195 6.03973 14.7284 5.93695 15.2458L4.83673 20.7844C4.70407 21.4522 5.23783 22 5.84171 22C6.00806 22 6.17978 21.9584 6.34433 21.8663L11.2454 19.1222C11.4796 18.9911 11.7398 18.9255 12 18.9255C12.2602 18.9255 12.5204 18.9911 12.7545 19.1222L17.6557 21.8663C17.8202 21.9584 17.9919 22 18.1583 22C18.7621 22 19.2959 21.4521 19.1632 20.7844L18.063 15.2458C17.9602 14.7284 18.1341 14.195 18.5228 13.8355L22.6729 9.99664C23.3104 9.40689 22.9616 8.34646 22.0963 8.24383L16.5006 7.58023C15.9692 7.51718 15.5091 7.18405 15.2863 6.70096L12.931 1.59335C12.7486 1.19778 12.3743 1 12 1Z" fill="currentColor"/>
</svg>
