<svg  viewBox="0 0 24 24" fill="none" xmlns="http://www.w3.org/2000/svg">
<path fill-rule="evenodd" clip-rule="evenodd" d="M11.2455 19.1221L6.34433 21.8663C5.58255 22.2928 4.66753 21.6361 4.83674 20.7844L5.93697 15.2458C6.03975 14.7284 5.86586 14.195 5.47718 13.8354L1.32712 9.99664C0.689547 9.40689 1.03837 8.34646 1.90369 8.24384L7.49936 7.58022C8.03082 7.51719 8.49089 7.18406 8.71367 6.70096L11.069 1.59335C11.4338 0.802217 12.5662 0.802217 12.931 1.59335L15.2863 6.70096C15.5091 7.18406 15.9692 7.51719 16.5006 7.58022L22.0963 8.24384C22.9616 8.34646 23.3105 9.40689 22.6729 9.99664L18.5228 13.8354C18.1341 14.195 17.9602 14.7284 18.063 15.2458L19.1633 20.7844C19.3325 21.6361 18.4174 22.2928 17.6557 21.8663L12.7545 19.1221C12.2862 18.8599 11.7138 18.8599 11.2455 19.1221Z" fill="currentColor"/>
</svg>
