<svg  viewBox="0 0 24 24" fill="none" xmlns="http://www.w3.org/2000/svg">
<path d="M12.6404 21L13.2917 18.1217L15.5689 15.5855C15.8469 15.2765 16.0004 14.8749 16.0004 14.4589L16.0004 6.68421C16.0004 5.75368 15.2486 5 14.3204 5L7.57414 5C6.9517 5 6.38815 5.36739 6.13531 5.9375L3.61367 11.6266C3.47339 11.9416 3.40039 12.283 3.40039 12.6283L3.40039 13.4211C3.40039 14.3474 4.15639 15.1053 5.08039 15.1053L10.9604 15.1053C10.9604 15.1053 10.1204 17.1017 10.1204 18.5888C10.1204 20.8979 12.6404 21 12.6404 21ZM20.2004 15.1053L20.2004 5L17.6804 5L17.6804 15.1053L20.2004 15.1053Z" fill="currentColor"/>
</svg>
