<svg  viewBox="0 0 24 24" fill="none" xmlns="http://www.w3.org/2000/svg">
<path d="M1.9851 11.319L1.42044 11.5828C0.920747 11.8162 0.326779 11.5996 0.093771 11.0991C-0.139237 10.5985 0.0769492 10.0036 0.576637 9.77015L2.02426 9.09396C2.16354 9.0289 2.31015 8.9988 2.45422 9.00007C2.85048 8.9954 3.22819 9.22895 3.38884 9.6182C3.82279 10.6696 4.7799 12.292 6.24636 13.6379C7.70136 14.9733 9.61384 16.0003 12 16.0003C14.3862 16.0003 16.2987 14.9733 17.7537 13.6379C19.2201 12.292 20.1773 10.6696 20.6112 9.6182C20.7719 9.22885 21.1497 8.99528 21.5461 9.00007C21.6901 8.99886 21.8366 9.02896 21.9757 9.09397L23.4234 9.77016C23.9231 10.0036 24.1392 10.5985 23.9062 11.0991C23.6732 11.5996 23.0793 11.8162 22.5796 11.5828L22.0149 11.319C21.8371 11.657 21.6296 12.015 21.3923 12.3826L21.9515 12.8527C22.3738 13.2077 22.4289 13.8384 22.0745 14.2615C21.7201 14.6846 21.0904 14.7398 20.6681 14.3848L20.1933 13.9857C19.889 14.3384 19.558 14.6867 19.2002 15.022L19.6303 15.5734C19.9697 16.0086 19.8927 16.6371 19.4582 16.9771C19.0238 17.3171 18.3964 17.24 18.0569 16.8048L17.6366 16.2658C17.2316 16.5355 16.8016 16.7842 16.3467 17.004L16.5988 17.6291C16.8054 18.1412 16.5584 18.724 16.0472 18.9309C15.536 19.1378 14.9541 18.8904 14.7476 18.3783L14.4707 17.6919C14.0156 17.8085 13.5414 17.895 13.0483 17.9463V18.6003C13.0483 19.1525 12.6013 19.6003 12.05 19.6003C11.4986 19.6003 11.0517 19.1525 11.0517 18.6003V17.9562C10.5554 17.9097 10.0782 17.8274 9.62009 17.7147L9.35242 18.3784C9.14589 18.8904 8.56405 19.1378 8.05285 18.9309C7.54165 18.724 7.29467 18.1412 7.50121 17.6291L7.73718 17.0441C7.25128 16.8146 6.79339 16.5521 6.36366 16.2659L5.94338 16.8048C5.60394 17.24 4.97656 17.3171 4.5421 16.9771C4.10763 16.6371 4.0306 16.0086 4.37004 15.5734L4.80003 15.0221C4.44276 14.6874 4.11225 14.3397 3.80837 13.9875L3.28986 14.3933C2.8554 14.7333 2.22802 14.6562 1.88858 14.221C1.54914 13.7858 1.62617 13.1573 2.06063 12.8173L2.61053 12.3869C2.372 12.0178 2.16357 11.6583 1.9851 11.319Z" fill="currentColor"/>
</svg>
