<svg  viewBox="0 0 24 24" fill="none" xmlns="http://www.w3.org/2000/svg">
<path fill-rule="evenodd" clip-rule="evenodd" d="M5.15931 4.75H12.45C14.1949 4.75 15.6093 6.1565 15.6093 7.89167V16.1083C15.6093 17.8435 14.1949 19.25 12.45 19.25H5.15931C3.4144 19.25 2 17.8435 2 16.1083V7.89167C2 6.1565 3.4144 4.75 5.15931 4.75ZM6.37443 12C6.37443 13.3326 7.46464 14.4167 8.80467 14.4167C10.1447 14.4167 11.2349 13.3326 11.2349 12C11.2349 10.6674 10.1447 9.58333 8.80467 9.58333C7.46464 9.58333 6.37443 10.6674 6.37443 12ZM20.8956 6.78676C21.1211 6.65239 21.4016 6.649 21.63 6.77757C21.8584 6.90614 21.9999 7.14684 21.9999 7.40832V16.5917C21.9999 16.8531 21.8584 17.0938 21.63 17.2224C21.5187 17.2852 21.3948 17.3167 21.2708 17.3167C21.1406 17.3167 21.0113 17.2823 20.8961 17.2132L17.1394 14.972V9.02797L20.8956 6.78676Z" fill="currentColor"/>
</svg>
