<svg  viewBox="0 0 24 24" fill="none" xmlns="http://www.w3.org/2000/svg">
<path fill-rule="evenodd" clip-rule="evenodd" d="M3.70711 2.29289C3.31658 1.90237 2.68342 1.90237 2.29289 2.29289C1.90237 2.68342 1.90237 3.31658 2.29289 3.70711L20.2929 21.7071C20.6834 22.0976 21.3166 22.0976 21.7071 21.7071C22.0976 21.3166 22.0976 20.6834 21.7071 20.2929L15.6093 14.1951V7.89167C15.6093 6.1565 14.1949 4.75 12.45 4.75H6.16421L3.70711 2.29289ZM2 7.89167C2 7.3236 2.1516 6.79076 2.41675 6.33097L6.76821 10.6824C6.51925 11.0616 6.37443 11.5143 6.37443 12C6.37443 13.3326 7.46464 14.4167 8.80467 14.4167C9.28822 14.4167 9.73923 14.2755 10.1182 14.0324L14.5454 18.4597C13.9878 18.9514 13.254 19.25 12.45 19.25H5.15931C3.4144 19.25 2 17.8435 2 16.1083V7.89167ZM20.8956 6.78676C21.1211 6.65239 21.4016 6.649 21.63 6.77757C21.8584 6.90614 21.9999 7.14684 21.9999 7.40832V16.5917C21.9999 16.8531 21.8584 17.0938 21.63 17.2224C21.5187 17.2852 21.3948 17.3167 21.2708 17.3167C21.1406 17.3167 21.0113 17.2823 20.8961 17.2132L17.1394 14.972V9.02797L20.8956 6.78676Z" fill="currentColor"/>
</svg>
