<svg  viewBox="0 0 24 24" fill="none" xmlns="http://www.w3.org/2000/svg">
<path d="M23 17.7691C23 18.9262 22.0619 19.8643 20.9048 19.8643H3.09524C1.93814 19.8643 1 18.9262 1 17.7691V6.24526C1 5.08817 1.93814 4.15002 3.09524 4.15002H20.9048C22.0619 4.15002 23 5.08817 23 6.24526V17.7691Z" fill="#1565C0"/>
<path d="M7.38315 9.3881L6.00763 13.4906C6.00763 13.4906 5.65825 11.7552 5.62368 11.5373C4.84058 9.75057 3.68506 9.8501 3.68506 9.8501L5.04696 15.15V15.149H6.70272L8.9923 9.3881H7.38315ZM8.69425 15.15H10.1981L11.1074 9.3881H9.58472L8.69425 15.15ZM19.3375 9.3881H17.7551L15.288 15.15H16.7819L17.0899 14.3271H18.9735L19.1338 15.15H20.5025L19.3375 9.3881ZM17.5068 13.2266L18.3255 11.0491L18.754 13.2266H17.5068ZM13.2409 11.0674C13.2409 10.75 13.5018 10.5138 14.2498 10.5138C14.7359 10.5138 15.2927 10.8668 15.2927 10.8668L15.5368 9.65733C15.5368 9.65733 14.8254 9.38757 14.1272 9.38757C12.5458 9.38757 11.7302 10.144 11.7302 11.1015C11.7302 12.8332 13.8145 12.5959 13.8145 13.4853C13.8145 13.6378 13.6935 13.9903 12.8255 13.9903C11.955 13.9903 11.3803 13.6713 11.3803 13.6713L11.1211 14.8321C11.1211 14.8321 11.6779 15.1495 12.7538 15.1495C13.8323 15.1495 15.3283 14.3428 15.3283 13.1841C15.3283 11.7903 13.2409 11.6897 13.2409 11.0674Z" fill="white"/>
<path d="M5.82522 12.5022L5.31922 10.0151C5.31922 10.0151 5.09032 9.47614 4.49527 9.47614C3.90022 9.47614 2.16956 9.47614 2.16956 9.47614C2.16956 9.47614 5.13484 10.3519 5.82522 12.5022Z" fill="#FFC107"/>
</svg>
