<svg  viewBox="0 0 24 24" fill="none" xmlns="http://www.w3.org/2000/svg">
<path fill-rule="evenodd" clip-rule="evenodd" d="M22 12C22 17.5228 17.5228 22 12 22C6.47715 22 2 17.5228 2 12C2 6.47715 6.47715 2 12 2C17.5228 2 22 6.47715 22 12ZM13.25 16.5C13.25 17.1904 12.6904 17.75 12 17.75C11.3096 17.75 10.75 17.1904 10.75 16.5C10.75 15.8096 11.3096 15.25 12 15.25C12.6904 15.25 13.25 15.8096 13.25 16.5ZM12 6C11.4477 6 11 6.44772 11 7V12C11 12.5523 11.4477 13 12 13C12.5523 13 13 12.5523 13 12V7C13 6.44772 12.5523 6 12 6Z" fill="currentColor"/>
</svg>
